<?xml version="1.0" encoding="UTF-8" standalone="no"?><!DOCTYPE svg PUBLIC "-//W3C//DTD SVG 1.1//EN" "http://www.w3.org/Graphics/SVG/1.1/DTD/svg11.dtd"><svg width="100%" height="100%" viewBox="0 0 1021 1220" version="1.1" xmlns="http://www.w3.org/2000/svg" xmlns:xlink="http://www.w3.org/1999/xlink" xml:space="preserve" xmlns:serif="http://www.serif.com/" style="fill-rule:evenodd;clip-rule:evenodd;stroke-linejoin:round;stroke-miterlimit:2;"><path d="M0.216,581.753c3.509,-0.155 -8.635,83.948 53.811,291.471c62.421,207.44 134.47,284.243 134.47,284.243c0,0 43.98,55.794 75.861,61.72c18.934,3.519 23.107,-22.507 23.217,-73.218c0,-0.085 -1.687,-51.239 22.838,-53.823c27.786,-2.926 58.182,27.627 63.214,30.378c5.032,2.75 51.257,48.68 82.386,75.613c31.129,26.933 50.583,17.344 51.854,16.414c1.271,-0.93 20.492,-7.318 20.755,-31.959c0.263,-24.641 6.168,-74.735 5.927,-70.732c-0.241,4.004 4.215,-28.135 26.994,-31.44c22.78,-3.305 36.566,4.705 61.999,24.951c25.433,20.246 29.177,25.986 78.235,59.845c49.058,33.859 61.781,5.168 61.781,5.168c0,-0 10.233,-16.434 8.332,-45.971c-1.9,-29.536 -3.313,-49.978 3.175,-66.887c6.488,-16.908 23.21,-19.27 60.034,-10.146c36.825,9.124 58.252,26.604 87.472,42.51c29.22,15.907 52.619,18.673 83.247,14.532c30.628,-4.141 5.029,-63.309 -0.058,-70.275c-5.086,-6.965 -39.626,-77.655 -51.55,-120.845c-12.219,-44.258 -32.262,-51.871 -29.689,-181.569c2.661,-134.145 21.172,-125.301 18.392,-256.148c-1.681,-79.119 -6.895,-108.584 -42.949,-201.409c-37.645,-96.923 -125.594,-194.902 -282.404,-251.015c-151.306,-54.144 -313.694,-6.111 -403.168,69.384c-56.755,47.889 -129.048,100.529 -183.461,248.183c-12.098,32.828 -32.968,92.793 -30.77,241.382l0.055,-0.357Zm855.816,-207.978c-0.217,165.332 -105.209,279.616 -165.759,323.941c-41.389,30.298 -232.924,140.677 -381.469,35.494l-1.183,0.781c62.875,98.938 274.202,152.581 421.974,37.741c110.183,-85.628 167.994,-238.488 126.437,-397.957Zm-244.831,-178.52c82.313,0 149.14,66.828 149.14,149.14c0,82.313 -66.827,149.14 -149.14,149.14c-82.312,0 -149.14,-66.827 -149.14,-149.14c0,-82.312 66.828,-149.14 149.14,-149.14Zm244.433,177.001l0.149,0.568l-0.149,-0.568Zm-594.706,-90.915c53.815,0 97.506,43.692 97.506,97.507c0,53.816 -43.691,97.507 -97.506,97.507c-53.816,0 -97.507,-43.691 -97.507,-97.507c-0,-53.815 43.691,-97.507 97.507,-97.507Zm-68.158,-51.451c-0.257,3.321 41.899,-28.06 65.379,-26.585c24.947,1.566 84.047,39.303 84.304,35.982c0.257,-3.321 -57.816,-54.342 -82.763,-55.908c-24.947,-1.566 -66.663,43.19 -66.92,46.511Zm302.579,-68.588c0.133,3.482 61.844,-51.947 88.068,-60.351c22.214,-7.119 69.407,13.408 69.274,9.926c-0.134,-3.483 -45.775,-38.61 -70.075,-30.822c-26.224,8.404 -87.401,77.764 -87.267,81.247Z" style="fill:url(#_Linear1);"/><defs><linearGradient id="_Linear1" x1="0" y1="0" x2="1" y2="0" gradientUnits="userSpaceOnUse" gradientTransform="matrix(-348.644,-1182.65,1182.65,-348.644,648.949,1174.46)"><stop offset="0" style="stop-color:#fff;stop-opacity:1"/><stop offset="1" style="stop-color:#fff;stop-opacity:1"/></linearGradient></defs></svg>