<?xml version="1.0" standalone="no"?>
<!DOCTYPE svg PUBLIC "-//W3C//DTD SVG 20010904//EN"
 "http://www.w3.org/TR/2001/REC-SVG-20010904/DTD/svg10.dtd">
<svg version="1.0" xmlns="http://www.w3.org/2000/svg"
 width="1220.000000pt" height="1220.000000pt" viewBox="0 0 1220.000000 1220.000000"
 preserveAspectRatio="xMidYMid meet">
<metadata>
Created by potrace 1.11, written by Peter Selinger 2001-2013
</metadata>
<g transform="translate(0.000000,1220.000000) scale(0.100000,-0.100000)"
fill="#000000" stroke="none">
<path d="M5578 12194 c-2 -2 -40 -6 -84 -8 -109 -7 -177 -14 -297 -31 -70 -10
-105 -16 -127 -20 -51 -10 -86 -17 -105 -20 -11 -1 -50 -10 -86 -18 -37 -9
-78 -18 -90 -21 -101 -20 -455 -129 -554 -171 -16 -7 -48 -20 -70 -28 -48 -18
-133 -56 -235 -105 -41 -20 -78 -35 -82 -34 -5 1 -8 -2 -8 -8 0 -5 -5 -10 -12
-10 -15 0 -231 -120 -240 -134 -4 -6 -8 -7 -8 -3 0 4 -15 -3 -33 -17 -19 -15
-39 -26 -45 -26 -7 0 -12 -4 -12 -10 0 -5 -5 -10 -11 -10 -6 0 -21 -8 -34 -17
-12 -10 -33 -25 -45 -33 -12 -8 -28 -21 -36 -27 -7 -7 -18 -13 -24 -13 -6 0
-13 -7 -16 -15 -4 -8 -12 -15 -19 -15 -7 0 -15 -7 -19 -15 -3 -8 -11 -15 -17
-15 -9 0 -96 -66 -119 -90 -3 -3 -30 -25 -60 -50 -30 -25 -60 -49 -66 -55 -6
-5 -33 -28 -60 -50 -26 -22 -55 -47 -64 -55 -9 -8 -38 -33 -65 -55 -28 -22
-62 -51 -77 -65 -14 -14 -57 -52 -94 -85 -64 -57 -296 -287 -359 -357 -29 -32
-114 -132 -145 -171 -8 -11 -20 -24 -25 -31 -6 -6 -26 -31 -45 -56 -19 -25
-38 -46 -42 -48 -5 -2 -8 -10 -8 -18 0 -8 -4 -14 -10 -14 -5 0 -10 -6 -10 -14
0 -8 -4 -16 -8 -18 -4 -1 -23 -25 -42 -53 -19 -27 -39 -54 -43 -60 -15 -19
-99 -150 -125 -195 -14 -25 -31 -48 -37 -52 -5 -4 -6 -8 -1 -8 5 0 2 -8 -6
-17 -9 -10 -42 -67 -74 -128 -32 -60 -62 -113 -67 -116 -5 -3 -8 -9 -8 -13 0
-3 -19 -48 -43 -98 -24 -51 -58 -124 -75 -163 -18 -38 -38 -81 -45 -95 -8 -14
-14 -27 -14 -30 -1 -7 -21 -62 -32 -85 -36 -77 -181 -482 -197 -550 -8 -37
-11 -50 -13 -50 -1 0 -3 -7 -5 -15 -2 -8 -14 -62 -28 -120 -14 -58 -28 -121
-31 -140 -3 -19 -10 -60 -16 -90 -11 -58 -14 -78 -25 -150 -4 -25 -8 -56 -10
-70 -3 -14 -7 -47 -9 -75 -3 -27 -8 -61 -10 -75 -3 -14 -8 -54 -11 -90 -3 -36
-7 -92 -10 -125 -12 -124 -14 -154 -21 -315 -15 -314 -9 -924 11 -1182 11
-138 18 -211 30 -315 14 -119 17 -142 25 -188 5 -27 12 -72 15 -100 11 -82 17
-119 29 -185 4 -19 11 -60 16 -90 21 -122 21 -121 40 -215 15 -74 17 -81 40
-190 28 -127 38 -174 44 -203 3 -13 8 -32 11 -42 3 -10 7 -27 9 -37 2 -10 9
-36 14 -58 6 -22 13 -51 16 -65 3 -14 14 -59 26 -100 17 -65 25 -97 34 -145 1
-5 4 -14 7 -20 4 -5 12 -35 20 -65 23 -96 29 -116 50 -185 11 -33 21 -69 24
-80 2 -11 14 -51 25 -90 12 -38 24 -79 27 -90 15 -56 102 -331 155 -485 32
-96 60 -179 61 -185 2 -5 5 -14 8 -20 4 -5 12 -28 19 -50 6 -22 23 -69 37
-105 14 -35 26 -69 28 -75 1 -5 8 -23 15 -40 7 -16 14 -34 16 -40 1 -5 20 -55
43 -110 23 -54 41 -105 41 -112 0 -7 5 -13 10 -13 6 0 9 -3 9 -7 -1 -5 0 -11
1 -15 1 -5 3 -11 5 -15 3 -13 24 -61 50 -119 14 -30 25 -56 25 -59 0 -2 14
-34 32 -72 18 -37 33 -70 33 -73 0 -3 22 -49 48 -103 26 -54 47 -103 47 -108
0 -5 5 -9 10 -9 6 0 10 -6 10 -13 0 -7 16 -44 36 -82 60 -116 119 -227 149
-280 16 -27 33 -59 39 -70 6 -10 17 -25 24 -33 6 -7 12 -20 12 -28 0 -8 5 -14
10 -14 6 0 10 -6 10 -14 0 -8 6 -21 12 -28 7 -7 22 -30 32 -51 11 -20 23 -37
28 -37 4 0 8 -5 8 -10 0 -22 231 -350 251 -358 5 -2 9 -8 9 -12 0 -5 10 -20
23 -33 12 -13 38 -42 57 -65 86 -104 179 -202 192 -202 6 0 9 -3 6 -6 -3 -3
17 -26 45 -52 28 -26 67 -62 87 -79 98 -92 266 -194 353 -216 99 -25 139 -9
185 73 49 90 69 242 77 593 3 111 7 216 9 232 16 107 31 165 57 223 23 50 85
122 105 122 8 0 14 4 14 9 0 5 14 8 31 7 16 -1 32 1 35 6 3 5 10 5 16 2 6 -4
30 -9 52 -11 41 -4 79 -10 84 -13 1 -2 5 -3 10 -4 27 -5 122 -50 122 -58 0 -5
4 -7 9 -4 14 9 236 -147 356 -251 25 -22 205 -188 295 -273 160 -151 210 -197
290 -270 51 -47 113 -104 138 -127 25 -24 47 -43 49 -43 3 0 24 -17 48 -38
104 -91 244 -153 354 -158 65 -3 81 0 135 26 140 67 193 155 201 333 7 140 21
335 30 407 3 25 7 68 10 95 10 123 20 195 25 203 2 1 3 5 5 10 3 11 15 43 33
87 25 63 98 155 122 155 5 0 10 5 10 11 0 5 4 8 9 5 5 -4 11 -2 13 4 3 10 25
17 80 25 15 2 33 7 39 11 8 5 9 3 4 -6 -6 -9 -4 -11 5 -5 16 10 80 15 80 6 0
-3 19 -7 41 -8 23 -1 58 -8 79 -17 21 -8 40 -12 44 -9 3 3 8 -2 12 -11 3 -9
14 -16 23 -16 26 0 278 -176 289 -202 2 -5 8 -8 13 -8 10 0 36 -20 85 -67 19
-18 38 -33 42 -33 4 0 26 -17 49 -38 23 -20 56 -48 73 -62 17 -14 36 -30 43
-35 7 -6 41 -33 77 -60 36 -27 67 -53 68 -57 2 -4 10 -8 18 -8 8 0 17 -7 20
-15 4 -8 10 -15 15 -15 5 0 44 -26 87 -57 44 -32 89 -65 101 -73 13 -8 49 -33
80 -55 73 -51 216 -133 236 -135 3 0 10 -2 17 -5 94 -31 192 -39 248 -20 48
16 100 58 124 101 26 46 58 135 62 171 1 12 5 26 8 31 16 26 20 201 9 362 -12
177 -6 401 12 477 3 13 7 31 9 40 28 115 110 188 222 197 23 2 46 6 53 10 6 4
11 4 11 -1 0 -4 27 -8 60 -8 33 0 60 -2 60 -5 0 -3 8 -6 18 -6 16 -1 77 -10
117 -18 11 -2 32 -9 46 -14 15 -6 30 -8 33 -5 3 3 11 1 18 -4 7 -6 24 -13 38
-16 63 -13 76 -17 95 -26 11 -5 56 -23 100 -41 85 -34 232 -108 302 -153 24
-15 47 -27 53 -27 5 0 10 -5 10 -11 0 -5 4 -8 9 -5 5 4 11 3 13 -2 4 -9 81
-55 223 -134 90 -50 204 -100 255 -113 3 -1 12 -4 20 -8 28 -10 91 -24 145
-31 17 -3 30 -5 30 -6 0 -3 101 -9 170 -10 60 -1 149 5 215 16 19 3 41 6 48 7
6 0 12 3 12 7 0 4 11 12 25 18 57 26 83 146 61 282 -15 98 -62 239 -109 330
-169 325 -257 507 -257 529 0 6 -4 11 -10 11 -5 0 -10 5 -10 11 0 6 -20 58
-45 115 -47 107 -62 143 -64 156 -1 5 -13 34 -27 65 -36 83 -139 386 -159 468
-1 6 -6 19 -10 30 -4 11 -19 49 -32 85 -14 36 -36 94 -50 130 -38 97 -72 200
-67 200 3 0 0 10 -7 21 -6 12 -13 36 -16 53 -7 40 -11 61 -13 61 -2 0 -10 37
-14 70 -2 17 -6 37 -9 45 -5 15 -14 79 -23 170 -3 25 -7 59 -9 75 -22 145 -26
1185 -5 1185 3 0 6 35 7 78 1 42 5 106 8 142 2 36 7 103 11 150 3 47 9 87 13
90 3 3 6 21 7 40 2 55 13 147 39 310 9 58 18 119 20 135 2 17 7 48 10 70 3 22
8 60 10 85 3 25 7 61 10 80 3 19 8 71 11 115 5 89 10 120 18 134 4 5 2 12 -3
15 -6 4 -6 18 -1 35 8 31 6 946 -4 1061 -2 36 -8 101 -11 145 -4 44 -8 94 -11
110 -2 17 -6 48 -8 70 -7 62 -16 121 -32 190 -1 6 -5 26 -8 45 -16 90 -21 109
-29 130 -9 25 -20 74 -21 95 -1 11 -4 22 -8 25 -4 3 -9 17 -11 30 -3 14 -15
59 -28 100 -13 41 -24 77 -24 80 -1 3 -4 12 -8 20 -14 37 -31 96 -29 103 1 4
-2 7 -6 7 -5 0 -9 6 -9 14 0 7 -9 39 -21 70 -12 31 -31 80 -41 109 -46 124
-104 275 -118 306 -8 18 -16 39 -17 45 -2 10 -14 39 -54 126 -9 19 -16 37 -17
40 -4 18 -62 126 -70 132 -7 5 -7 8 0 8 7 0 7 3 0 8 -9 6 -51 80 -79 139 -6
13 -14 23 -18 23 -5 0 -8 5 -8 11 0 5 -22 44 -50 86 -28 42 -50 77 -50 80 0 7
-105 148 -112 151 -5 2 -8 10 -8 18 0 8 -4 14 -8 14 -4 0 -15 12 -24 28 -9 15
-27 38 -40 52 -13 14 -34 39 -47 55 -75 97 -313 345 -437 455 -103 92 -167
146 -195 163 -16 11 -29 23 -29 27 0 5 -8 11 -18 14 -9 3 -31 18 -49 33 -17
16 -57 46 -88 68 -32 22 -78 55 -102 73 -24 17 -45 32 -48 32 -2 0 -48 29
-102 64 -54 34 -114 72 -133 82 -19 10 -37 22 -40 25 -3 3 -12 9 -20 12 -8 4
-46 25 -85 46 -117 65 -455 231 -470 231 -3 0 -27 10 -53 21 -96 43 -113 50
-179 75 -38 13 -75 28 -83 31 -8 3 -19 8 -25 9 -5 2 -69 24 -142 49 -165 56
-393 116 -498 131 -16 3 -50 9 -75 14 -25 5 -67 12 -95 16 -27 4 -54 8 -60 9
-5 1 -46 6 -90 10 -44 5 -96 10 -115 12 -50 5 -578 12 -582 7z m1437 -798 c17
-4 57 -19 90 -32 33 -14 69 -28 80 -31 11 -4 22 -9 25 -13 3 -4 33 -22 68 -40
34 -18 62 -37 62 -41 0 -5 5 -9 11 -9 17 0 145 -97 162 -123 15 -23 14 -23
-14 -19 -16 2 -29 7 -29 11 0 3 -10 7 -22 8 -13 0 -92 20 -176 42 -84 23 -179
44 -210 47 -102 12 -232 7 -232 -8 0 -4 -6 -8 -12 -8 -32 0 -256 -129 -266
-152 -2 -5 -8 -8 -14 -8 -9 0 -69 -42 -96 -68 -8 -6 -23 -17 -34 -23 -11 -6
-27 -17 -36 -25 -9 -8 -57 -47 -107 -85 -49 -38 -97 -75 -105 -82 -8 -7 -19
-15 -25 -17 -5 -3 -25 -20 -45 -37 -19 -18 -38 -33 -41 -33 -4 0 -22 -13 -40
-30 -36 -31 -49 -37 -49 -20 0 6 5 10 10 10 6 0 10 6 10 13 0 8 9 22 20 32 11
10 20 24 20 32 0 8 4 12 8 9 5 -3 19 9 32 26 35 48 91 107 250 267 167 168
219 216 316 288 38 29 74 56 79 61 6 4 38 22 73 39 56 28 71 31 135 29 40 -2
86 -6 102 -10z m-3385 -1037 c0 -4 8 -6 17 -5 28 4 128 -44 271 -129 148 -88
517 -393 498 -412 -5 -6 -66 16 -76 26 -3 3 -43 26 -90 50 -47 24 -127 65
-177 92 -51 26 -93 45 -93 42 0 -4 -8 1 -17 9 -10 8 -45 25 -78 38 -33 13 -70
30 -82 38 -13 8 -23 11 -23 8 0 -4 -13 0 -30 9 -16 8 -33 16 -37 16 -5 1 -12
3 -18 4 -169 48 -297 14 -610 -163 -116 -66 -155 -84 -155 -73 0 11 168 182
235 240 98 85 280 196 335 204 10 2 22 5 24 8 8 7 106 6 106 -2z m3650 -122
c59 -9 137 -20 155 -23 11 -1 20 -3 20 -4 0 -1 10 -3 22 -6 12 -2 41 -11 65
-19 24 -9 48 -17 55 -19 7 -1 16 -5 19 -9 4 -4 14 -7 21 -7 19 0 227 -100 231
-111 2 -5 8 -9 13 -9 10 0 115 -69 159 -105 106 -85 289 -292 344 -390 63
-111 82 -151 117 -239 21 -54 42 -115 46 -135 9 -44 8 -43 16 -61 8 -20 25
-120 33 -197 12 -124 5 -306 -17 -413 -6 -30 -12 -64 -14 -75 -15 -93 -112
-329 -177 -428 -21 -32 -38 -63 -38 -68 0 -5 -7 -12 -15 -15 -8 -4 -15 -13
-15 -20 0 -8 -7 -17 -15 -20 -8 -4 -15 -11 -15 -16 0 -19 -169 -195 -245 -254
-27 -21 -51 -42 -53 -46 -2 -5 -9 -8 -16 -8 -7 0 -21 -9 -31 -20 -10 -11 -24
-20 -32 -20 -7 0 -13 -4 -13 -10 0 -5 -7 -10 -15 -10 -8 0 -15 -5 -15 -10 0
-6 -3 -9 -7 -8 -5 1 -24 -6 -43 -17 -66 -36 -150 -74 -150 -68 0 3 -6 1 -12
-5 -14 -10 -156 -58 -198 -66 -14 -3 -36 -7 -50 -11 -59 -13 -79 -16 -145 -22
-153 -14 -313 -6 -450 23 -44 9 -85 17 -92 18 -7 1 -16 5 -19 9 -4 4 -14 7
-23 7 -9 0 -47 13 -86 28 -84 34 -108 43 -115 43 -3 0 -12 7 -21 15 -9 8 -19
11 -22 7 -4 -3 -7 -1 -7 6 0 7 -4 9 -10 6 -5 -3 -10 -2 -10 3 0 4 -16 14 -35
22 -19 8 -35 17 -35 21 0 3 -13 12 -30 19 -16 7 -30 16 -30 21 0 5 -5 9 -11 9
-31 0 -329 276 -329 305 0 2 -11 16 -25 31 -14 15 -25 31 -25 36 0 5 -8 18
-18 28 -31 34 -115 196 -154 300 -14 36 -29 74 -33 85 -5 11 -7 24 -6 29 1 5
-3 21 -8 35 -6 14 -12 40 -15 56 -2 17 -5 30 -6 30 -4 0 -13 63 -14 97 -1 21
-4 38 -7 38 -6 0 -2 323 5 360 2 14 7 41 10 60 13 69 49 205 58 217 5 7 7 16
4 22 -3 5 -1 11 4 13 6 2 12 13 13 26 0 12 6 22 11 22 5 0 7 3 4 6 -15 14 148
292 220 376 44 51 248 248 257 248 2 0 36 23 76 50 40 28 78 50 85 50 7 0 14
4 16 8 7 20 298 141 298 125 0 -3 6 -1 13 5 6 6 28 12 47 14 19 1 37 6 40 9 5
7 86 20 137 23 18 0 33 3 33 6 0 6 281 4 320 -3z m-3525 -861 c156 -23 330
-98 453 -195 74 -59 189 -183 214 -230 7 -14 15 -28 19 -31 23 -22 94 -191
118 -285 28 -109 31 -296 7 -405 -1 -8 -6 -33 -11 -55 -4 -22 -10 -44 -14 -50
-3 -5 -6 -12 -7 -15 -20 -107 -158 -326 -258 -409 -10 -9 -30 -27 -45 -39 -33
-31 -148 -105 -157 -102 -4 1 -10 -2 -13 -7 -21 -31 -242 -102 -333 -108 -15
-1 -30 -3 -32 -6 -4 -3 -181 -3 -181 1 0 1 -15 3 -34 5 -37 4 -128 23 -151 32
-8 4 -17 7 -20 8 -52 14 -203 84 -208 97 -2 4 -8 8 -14 8 -5 0 -15 6 -22 13
-8 6 -24 19 -37 27 -12 8 -33 25 -46 37 -13 12 -23 20 -23 17 0 -8 -55 52
-116 127 -30 36 -54 71 -54 78 0 6 -4 11 -10 11 -5 0 -10 7 -10 15 0 8 -5 15
-11 15 -5 0 -7 5 -4 10 3 6 1 10 -4 10 -6 0 -10 3 -9 8 0 4 -10 32 -24 62 -35
76 -66 185 -72 250 -1 14 -4 30 -7 35 -8 16 2 290 11 290 2 0 9 31 14 60 2 11
16 52 30 90 15 39 30 78 33 88 3 9 9 17 13 17 4 0 11 12 14 26 4 14 11 31 16
37 25 31 80 108 80 112 0 12 146 148 200 186 197 138 460 200 705 165z m5816
-963 c6 -16 13 -41 16 -58 5 -28 10 -57 12 -62 1 -2 1 -4 1 -5 1 -2 9 -40 19
-85 10 -45 17 -93 16 -108 0 -14 2 -25 6 -25 3 0 6 -6 6 -12 0 -7 3 -38 7 -68
15 -107 17 -125 21 -175 2 -27 4 -50 5 -50 11 0 16 -489 6 -605 -3 -36 -7 -87
-10 -115 -6 -78 -20 -185 -31 -245 -5 -25 -14 -77 -20 -115 -2 -11 -6 -31 -9
-45 -4 -14 -9 -38 -11 -55 -3 -16 -8 -38 -11 -47 -3 -9 -7 -25 -9 -35 -2 -10
-8 -33 -14 -50 -5 -18 -8 -33 -5 -33 3 0 0 -8 -5 -19 -6 -10 -13 -33 -16 -52
-3 -18 -10 -38 -15 -44 -4 -5 -8 -12 -8 -15 0 -25 -16 -80 -24 -80 -6 0 -8 -6
-5 -14 3 -7 1 -18 -3 -22 -5 -5 -11 -18 -13 -29 -4 -19 -7 -28 -24 -72 -3 -10
-7 -20 -8 -23 -1 -3 -5 -14 -10 -25 -24 -59 -32 -81 -33 -88 -1 -4 -8 -20 -17
-35 -16 -29 -37 -84 -35 -91 1 -2 -2 -7 -7 -10 -7 -5 -44 -76 -48 -91 -2 -11
-68 -135 -74 -140 -3 -3 -15 -23 -26 -45 -11 -22 -24 -43 -28 -46 -5 -3 -8 -9
-8 -13 1 -5 -67 -116 -86 -141 -5 -5 -21 -30 -38 -55 -16 -25 -44 -63 -62 -86
-18 -23 -33 -44 -33 -48 0 -4 -9 -17 -20 -29 -48 -52 -80 -93 -86 -109 -3 -10
-12 -18 -20 -18 -8 0 -14 -4 -14 -9 0 -18 -251 -277 -345 -356 -27 -22 -53
-45 -59 -50 -6 -6 -33 -28 -61 -50 -27 -22 -51 -43 -53 -47 -2 -5 -8 -8 -14
-8 -5 0 -15 -6 -23 -12 -21 -21 -52 -45 -61 -49 -5 -2 -47 -29 -94 -60 -96
-64 -150 -96 -230 -136 -30 -16 -56 -31 -58 -35 -2 -5 -12 -8 -23 -8 -10 0
-28 -9 -39 -20 -11 -11 -20 -18 -20 -15 0 3 -17 -2 -37 -11 -107 -45 -239 -97
-250 -97 -7 0 -13 -5 -13 -10 0 -6 -3 -8 -6 -4 -3 3 -29 -2 -58 -12 -66 -24
-152 -49 -194 -57 -18 -4 -35 -11 -38 -15 -3 -5 -9 -7 -13 -4 -5 2 -48 -4 -97
-15 -49 -10 -107 -21 -129 -24 -22 -3 -60 -8 -85 -12 -86 -12 -106 -14 -195
-20 -117 -8 -475 -11 -475 -3 0 3 -26 7 -57 8 -67 3 -138 9 -138 12 0 0 -13 2
-30 4 -16 1 -48 6 -70 10 -57 10 -82 14 -107 19 -13 2 -41 7 -63 12 -51 10
-41 8 -110 24 -33 8 -62 14 -65 15 -3 0 -21 6 -41 13 -20 7 -47 15 -60 18 -23
5 -51 12 -56 13 -2 1 -5 0 -6 -1 -2 -2 -11 3 -19 10 -9 7 -26 15 -39 17 -12 3
-54 17 -93 32 -39 15 -74 26 -78 25 -5 -1 -8 3 -8 8 0 6 -7 10 -15 10 -43 0
-443 217 -502 273 -13 11 -23 16 -23 11 0 -5 -4 -4 -8 1 -4 6 -41 37 -82 69
-155 123 -402 398 -378 421 3 3 75 -40 103 -62 16 -13 126 -76 170 -98 22 -11
42 -23 43 -27 2 -5 8 -8 14 -8 13 0 105 -41 162 -71 21 -12 35 -16 31 -9 -5 8
-2 9 11 1 30 -16 86 -37 134 -51 53 -15 63 -17 70 -18 3 0 17 -5 33 -11 27
-11 63 -19 102 -25 11 -2 20 -4 20 -5 0 -3 57 -13 87 -14 16 -1 28 -4 28 -7 0
-3 15 -6 33 -7 43 -4 102 -11 102 -13 0 -5 183 -13 315 -13 173 0 303 7 321
19 8 5 10 3 4 -6 -5 -9 -4 -11 4 -6 13 9 48 15 106 21 22 2 51 7 65 10 14 3
41 7 60 10 34 4 59 9 110 21 14 3 35 6 48 7 12 1 22 4 22 7 0 3 8 6 18 7 23 2
58 10 107 23 44 12 56 15 100 25 17 4 36 12 43 18 7 5 15 7 19 4 3 -4 12 -2
19 3 6 6 16 10 20 9 5 -1 16 0 24 4 27 10 195 69 205 71 6 1 27 10 49 19 21 9
42 17 46 17 4 0 34 12 66 26 62 28 109 46 109 44 0 -1 23 10 50 23 65 33 164
76 172 76 3 -1 9 3 12 8 3 6 40 26 81 47 112 56 175 90 178 99 2 4 10 7 18 7
8 0 14 5 14 12 0 6 3 9 6 5 4 -3 25 6 48 22 22 15 49 30 59 34 9 4 17 11 17
17 0 6 4 9 9 6 4 -3 16 3 26 14 10 11 22 20 27 20 8 0 194 136 225 164 6 6 37
33 70 61 115 98 387 376 468 479 17 21 38 48 48 60 10 11 28 34 40 49 12 16
28 35 35 42 6 8 12 16 12 19 0 3 8 14 18 24 9 10 24 29 32 42 8 12 21 29 28
36 7 8 10 14 5 14 -4 0 -3 4 3 8 24 15 201 290 196 305 -1 4 2 7 7 7 5 0 11 8
15 18 3 9 15 33 27 52 21 34 153 290 154 300 1 3 10 23 20 45 10 22 19 42 20
45 9 27 27 68 35 82 6 10 10 22 10 27 0 5 8 26 17 47 9 22 17 41 18 44 1 3 5
19 10 35 4 17 11 35 15 40 5 8 29 83 36 115 0 3 6 19 13 35 7 17 14 41 16 55
2 14 8 37 14 53 6 15 8 27 5 27 -4 0 -1 7 6 15 7 8 10 15 6 15 -3 0 -1 12 5
27 6 15 12 44 14 63 2 19 9 50 14 68 5 17 7 32 5 32 -3 0 -2 6 3 13 4 6 9 23
10 37 1 14 5 39 8 55 4 17 9 41 10 55 2 14 4 25 5 25 2 0 4 19 14 130 3 33 8
80 11 105 3 25 8 87 10 138 2 51 7 97 10 102 3 6 3 10 -2 10 -4 0 -8 11 -8 25
0 32 3 31 16 -2z"/>
</g>
</svg>
