<svg id="Capa_1" enable-background="new 0 0 512 512" height="512" viewBox="0 0 512 512" width="512" xmlns="http://www.w3.org/2000/svg"><g><g><path d="m245.877 15.586v40.247c-108.074 2.884-194.799 91.397-194.799 200.167 0 108.77 86.725 197.283 194.799 200.166v40.247h71.174v-480.827zm-119.454 240.414c0-67.044 53.101-121.919 119.454-124.777v249.554c-66.353-2.858-119.454-57.733-119.454-124.777z" fill="#008bff"/></g><g><path d="m430.645 0h-44.389c-16.695 0-30.277 13.582-30.277 30.277v393.097c0 .005.041.9.044.936.101 1.092.378 2.134.802 3.095l17.33 41.37c.006.013.011.027.017.04.016.038.033.076.049.114.009.021.019.043.029.064.009.02.018.041.027.061l16.883 37.089c1.624 3.567 5.182 5.857 9.102 5.857h16.375c3.919 0 7.478-2.29 9.102-5.857l16.883-37.089c.009-.02.018-.041.027-.061.01-.021.019-.043.029-.064.017-.038.033-.076.049-.114.006-.013.012-.027.017-.04l17.33-41.37c.424-.962.701-2.003.802-3.095.003-.035.044-.931.044-.936v-393.097c.002-16.695-13.58-30.277-30.275-30.277zm-3.776 454.911h-36.836l-9.022-21.537h54.88zm-28.418-378.894v337.356h-22.471v-337.356zm20 337.357v-337.357h22.471v337.356h-22.471zm-32.195-393.374h44.389c5.667 0 10.277 4.61 10.277 10.277v25.594h-64.942v-25.594c0-5.667 4.61-10.277 10.276-10.277zm23.947 472h-3.505l-7.779-17.089h19.063z" fill="#008bff"/></g></g></svg>