<?xml version="1.0" encoding="utf-8"?>
<!-- Generator: Adobe Illustrator 16.0.0, SVG Export Plug-In . SVG Version: 6.00 Build 0)  -->
<svg fill='white' version="1.2" baseProfile="tiny" id="Layer_1" xmlns="http://www.w3.org/2000/svg" xmlns:xlink="http://www.w3.org/1999/xlink"
	 x="0px" y="0px" width="900px" height="900px" viewBox="0 0 900 900" xml:space="preserve">
<g>
	<path d="M50.345,263.837c-12.747,2.45-22.551,7.352-26.962,13.727c-1.471,1.96-3.433,5.881-4.414,9.314l-1.96,5.393v156.873
		c0,147.562,0,157.364,1.471,162.757c3.431,11.768,11.764,21.081,22.549,25.003c6.864,2.45,22.061,3.431,28.924,1.469
		c10.785-2.45,19.12-8.821,24.021-18.137c4.902-10.295,4.902-6.374,5.393-95.105l0.491-81.377H64.07v19.608h7.354l-0.491,72.065
		c0,59.317-0.49,72.552-1.471,74.514c-1.959,3.921-4.412,6.373-7.842,7.354c-2.452,0.979-3.433,0.49-7.354-0.981
		c-2.45-0.98-4.902-3.433-5.883-4.413c-1.961-2.45-1.961-2.94-1.961-159.324c0-108.833,0-157.365,0.491-159.815
		c0.49-1.961,2.452-4.414,3.923-5.393c2.45-1.961,3.431-2.452,8.333-1.961c6.374,0.49,9.806,2.45,10.785,7.844
		c0.49,1.96,0.98,26.472,0.98,63.239v60.298h28.434v-48.042c0-26.472-0.49-54.905-0.49-63.24c-0.49-13.726-0.981-15.687-2.94-20.099
		C88.583,268.739,69.953,260.406,50.345,263.837z M401.838,266.778l-4.902,0.49v365.713h25.493c14.216,0,27.453-0.49,30.395-0.98
		c15.688-2.94,23.53-11.766,25.492-27.943c0.49-4.412,0.98-31.376,0.49-76.476c-0.49-63.73-0.49-69.613-1.962-73.535
		c-2.452-5.883-6.374-10.294-11.275-12.744l-4.413-2.452l2.941-1.472c4.414-1.961,10.295-7.844,12.747-12.256
		c1.962-3.921,1.962-5.393,1.962-48.044c0-24.02,0-54.415-0.49-67.65c-0.981-26.474-1.472-28.924-7.354-34.807
		c-5.393-5.392-10.785-7.354-23.532-7.844C437.136,266.288,411.154,266.288,401.838,266.778L401.838,266.778z M446.45,290.309
		c1.471,1.471,2.452,3.433,3.433,5.393c0.98,4.412,0.98,122.068,0,125.989c-1.471,5.885-3.433,6.375-14.218,6.863l-9.804,0.491
		V287.857l9.314,0.49C443.509,288.348,444.49,288.348,446.45,290.309z M447.43,452.086l2.452,1.961v75.007
		c0,51.963-0.49,75.494-0.981,77.454c-1.471,3.923-5.883,5.393-14.706,5.883l-8.335,0.49V449.634h9.804
		C444.98,449.634,445.469,449.634,447.43,452.086z M850.891,303.056c-1.961,3.431-5.883,4.902-9.806,3.431
		c-2.45-0.981-2.94-0.491-4.9,0.98c-1.961,1.471-2.452,2.452-1.961,6.374c0.49,5.393-1.47,8.333-4.412,9.314
		c-2.452,0.98-3.433,1.961-3.433,5.883c0,2.452,0.49,3.433,2.452,4.412c1.471,0.49,3.433,1.961,3.923,3.433
		c1.47,1.961,1.47,2.942,0.488,6.373c-0.979,3.92-0.979,4.41,0.981,6.372c1.961,1.962,2.45,1.962,3.921,1.471
		c4.902-2.452,11.766,0.491,11.766,5.393c0,1.471,0.49,1.961,3.922,1.961c3.433,0,3.923-0.49,5.394-2.942
		c0.979-1.959,2.45-3.431,4.412-4.412c2.452-0.98,3.431-0.98,5.881,0.491l3.433,1.471l2.45-2.452
		c2.452-2.452,2.452-2.942,1.472-4.902c-2.452-5.391-0.491-9.804,4.901-11.766c1.472-0.49,1.962-0.979,1.962-4.412
		c0-3.431-0.49-3.921-2.452-4.902c-3.921-1.471-5.883-5.393-4.411-9.316c0.98-2.94,0.98-3.431-0.981-5.391
		c-1.961-1.961-2.45-1.961-6.373-1.471c-4.9,0.49-7.353-0.49-8.823-4.902c-0.49-1.471-1.47-1.962-4.902-1.962
		C852.362,300.113,851.872,300.604,850.891,303.056L850.891,303.056z M610.188,304.037c-11.766,1.469-22.061,8.823-26.963,18.627
		l-2.451,4.902v24.022c0,46.082,4.413,73.535,18.139,108.832c8.825,23.04,13.727,38.729,18.139,56.866
		c6.861,26.472,9.314,45.103,10.295,71.575c0.49,17.156,0.49,17.646-1.471,20.589c-4.414,7.354-8.334,7.845-13.236,1.96
		l-3.432-4.412v-85.789h-28.434v43.14c0,45.102,0.49,49.022,3.923,56.377c5.883,11.275,16.667,16.668,34.314,16.668
		c17.648,0,29.905-7.353,35.297-20.59c1.962-4.903,1.962-6.373,1.962-25.492c0-39.219-6.373-76.476-17.158-106.871
		c-14.218-39.707-20.591-60.298-24.512-84.318c-3.432-19.121-3.922-27.943-4.902-49.024c-0.49-16.668-0.49-19.608,0.98-22.06
		c2.942-5.393,10.783-5.883,15.197-1.471l1.961,2.452l0.49,45.592l0.49,45.592h13.728c11.764,0,13.726,0,14.216-1.472
		c0.98-1.961,0.49-70.594-0.49-83.83c-0.49-9.804-0.98-11.766-3.433-15.687c-2.94-5.394-6.862-8.825-12.745-12.256
		C631.758,304.527,619.992,302.565,610.188,304.037L610.188,304.037z M294.97,469.734v163.247h28.434V478.067h4.902
		c5.883,0,10.295,1.961,12.256,5.393c0.979,1.961,1.469,15.198,1.469,75.496l0.49,73.045h28.434l-0.488-73.045
		c-0.491-68.143-0.491-73.535-1.961-77.456c-1.962-4.902-7.354-10.785-12.256-13.235l-3.431-1.471l2.941-0.981
		c5.883-2.451,9.804-6.373,12.256-11.275l2.452-4.903v-59.808c0-65.691,0-65.691-5.395-72.064
		c-5.393-6.374-15.196-8.824-45.101-9.804c-8.824-0.491-17.647-0.491-20.099-0.981l-4.902-0.49V469.734L294.97,469.734z
		 M339.09,332.47c2.45,2.45,2.45,3.431,2.94,12.254c0.49,4.902,0.49,30.395,0.49,56.377c-0.49,57.357,0.491,53.927-12.745,54.905
		l-5.883,0.49V329.038l6.372,0.49C335.659,329.528,336.64,329.528,339.09,332.47z M126.33,470.715v162.267h54.417v-20.591h-25.983
		V471.205h25.983v-20.591h-25.983V328.057h25.983v-19.608H126.33V470.715z M221.435,310.41
		c-0.49,2.45-26.472,317.179-26.472,320.612c0,1.96,0,1.96,13.725,1.96h13.728l0.49-3.921c0.49-3.433,3.921-61.77,3.921-65.202
		c0-1.47,0.981-1.47,8.335-1.47h8.333l0.49,5.393c0.49,6.862,3.921,59.808,3.921,62.75v2.45h28.924l-0.49-5.393
		c-0.489-2.94-6.374-73.535-13.237-156.874c-6.862-83.339-12.745-154.424-13.235-157.364l-0.49-4.902h-14.216
		C221.925,308.448,221.925,308.448,221.435,310.41z M239.574,468.265c1.471,31.374,2.94,59.808,2.94,63.729l0.49,6.863h-14.706
		l0.49-7.354c0.491-3.921,1.96-33.825,3.431-66.181c1.471-32.354,2.942-59.808,3.431-60.298
		C236.631,403.063,236.631,401.102,239.574,468.265L239.574,468.265z M505.278,470.715v162.267h53.435v-20.591h-25.001V470.225
		h25.001v-19.61h-25.001V328.057h25.981v-19.608h-54.415V470.715z M672.447,318.252v9.804h26.962v304.925h28.434V328.057h25.981
		v-19.608h-81.377V318.252z"/>
	<path d="M782.258,333.939l-4.901,1.961l-0.491,5.393c-0.49,6.372-2.449,9.804-8.333,12.745c-2.94,1.471-4.901,1.962-7.354,1.471
		c-3.433-0.49-3.433-0.49-5.393,4.414c-3.431,7.354-3.431,8.333-0.98,9.805c8.335,4.411,8.335,19.117,0.49,23.531
		c-2.45,1.469-2.45,2.45,0.49,9.313c1.96,3.922,1.96,4.412,4.902,3.431c9.804-1.959,17.648,6.374,16.668,17.158l-0.491,3.434
		l5.393,2.45c2.94,1.471,5.883,2.451,6.374,2.451c0.49,0,1.471-1.471,2.942-2.942c4.411-5.883,11.275-7.843,18.137-4.411
		c1.962,0.98,4.412,2.942,4.902,4.411c0.98,1.472,1.961,2.452,2.452,2.452c0.49,0,3.921-0.98,6.863-2.452l5.883-2.45l-0.49-5.393
		c-0.49-4.413,0-5.394,1.471-8.334c3.432-5.393,6.372-6.862,12.745-6.862h5.393l1.961-6.373l1.962-5.883l-2.942-2.452
		c-3.921-2.942-5.393-6.863-5.393-11.766c0-4.412,2.45-9.313,5.883-11.275l1.962-1.47l-2.452-5.394l-2.452-5.393h-4.411
		c-8.823,0-13.726-5.392-14.216-14.216l-0.491-5.393l-4.411-1.961c-5.883-2.94-7.354-2.45-10.297,0.49
		c-5.392,5.395-13.234,5.885-19.117,0.491C790.103,330.999,789.122,330.999,782.258,333.939z M807.749,361.883
		c4.902,1.471,10.787,6.373,13.237,10.787c1.962,4.409,1.962,11.273,0.49,15.194c-5.883,13.728-24.02,17.16-33.336,5.395
		c-8.823-10.787-4.411-26.473,9.316-31.376C801.378,360.902,802.85,360.902,807.749,361.883L807.749,361.883z"/>
</g>
</svg>
