<?xml version="1.0" encoding="utf-8"?>
<!-- Generator: Adobe Illustrator 19.2.1, SVG Export Plug-In . SVG Version: 6.00 Build 0)  -->
<svg version="1.1" id="layer" xmlns="http://www.w3.org/2000/svg" xmlns:xlink="http://www.w3.org/1999/xlink" x="0px" y="0px"
	 viewBox="0 0 652 652" style="enable-background:new 0 0 652 652;" xml:space="preserve">
<style type="text/css">
	.st0{fill-rule:evenodd;clip-rule:evenodd;fill:white;}
	.st1{fill:none;stroke:#FC8200;stroke-width:6.3526;stroke-linecap:round;stroke-linejoin:round;stroke-miterlimit:10;}
	.st2{fill-rule:evenodd;clip-rule:evenodd;fill:#FC8200;}
</style>
<path class="st0" d="M594.2,318.6c-1-11.5-6.5-19.9-17.2-20.3c-13.5-0.5-22.5,8.6-25.5,20.3H594.2z M316.4,298.3
	c12.8,0.5,18.2,12.5,17.3,27.5c-0.9,14.1-12.3,27.7-25.2,27.7c-12.8,0-19.7-9.7-18.7-27.7C290.6,310.9,300.3,297.6,316.4,298.3z
	 M394.8,349.6c9.8,9.3,29.8,6.7,39.1-3.3c10.8-11.6,8.6-28.9,6.6-34.2c-2-5.3-4.8-11.7-16-13.3c-7.3-1-15.2,3.2-19.9,6.2
	L394.8,349.6z M498.1,369.8h-24.5l20-87.8h24.1L498.1,369.8z M82.4,369.9H57.9l20-87.8h24.1L82.4,369.9z M131,369.9h-26.7
	l26.9-121.5h35.7l12.4,75.2l45.4-75.2l37.8,0l-25.7,121.5l-28.1,0.2l19-85.2L175,369.9h-10.4L150,283.6L131,369.9z M550.4,334.1
	c1.3,12.6,7.9,19.3,18.6,19.3c8.7,0,16.8-6.3,21.3-14.8l14.5,18.6c-10,10.1-24.2,15.3-38.2,15.3c-25.6,0-41.5-16-40.9-45.5
	c0.5-25,18.7-48.2,53-47.4c23.9,0.5,39.6,16.6,40.7,39.1h0.1v15.5H550.4z M318.3,279.5c25.6,0.6,41.7,18.9,40.7,43.9
	c-1.2,31.9-27.2,49.1-52.8,49.1c-25.6,0-41.5-16-40.9-45.5C265.8,301.9,284,278.7,318.3,279.5z M407.6,291.6
	c5-5.3,15.2-13.9,27-12.1c16.8,2.5,26.4,13.9,29.3,22.6c3,8.7,6.3,36.8-9.9,55.7c-15,17.5-48.3,21.1-61.4,1.6l-2.3,10.5h-24.5
	L393,248.3h24.1L407.6,291.6z"/>
<path class="st1" d="M486.6,248.6c0.9-1,25-20,47.7,5.4 M541.6,244.2c-28.3-30.6-59.5-7.8-60.4-6.8"/>
<path class="st2" d="M97.7,243.5c7,0.1,11.7,5.5,11.7,13.4c0,7.8-7.7,14.9-15.7,14.9s-12.3-6-12.3-13.8
	C81.4,250.1,89.7,243.3,97.7,243.5z M498.4,263.4c0,5.1,2.8,8.9,7.9,8.9c5.1,0,10.1-4.6,10.1-9.6c0-5.1-3-8.6-7.5-8.6
	C503.8,253.9,498.4,258.3,498.4,263.4z M299,409c24.6,0,223,5.3,237.7,6c13.4-1.1,80.5,5.9,83.9-9.5c3.5-15.9-36.2-17.2-36.2-17.2
	c-149.9-15.8-563.6,17.3-563.6,17.3C26.3,405.4,274.5,409,299,409z"/>
</svg>
