<?xml version="1.0" encoding="UTF-8"?>
<svg width="126px" height="39px" viewBox="0 0 126 39" version="1.1" xmlns="http://www.w3.org/2000/svg" xmlns:xlink="http://www.w3.org/1999/xlink">
    <!-- Generator: Sketch 57.1 (83088) - https://sketch.com -->
    <title>imyfone_logo</title>
    <desc>Created with Sketch.</desc>
    <g id="页面-1" stroke="none" stroke-width="1" fill="none" fill-rule="evenodd">
        <g id="字体图标" transform="translate(-321.000000, -44.000000)" fill="#259BD6">
            <g id="logo" transform="translate(321.000000, 44.000000)">
                <path d="M17.8446701,0.127918782 C27.5025381,0.127918782 35.3055838,7.93096447 35.2416244,17.6527919 C35.2416244,22.9614213 32.8751269,27.6944162 29.1654822,30.8923858 C26.1593909,33.6426396 22.7055838,35.9451777 19.1878173,38.1837563 L19.1878173,38.1837563 L17.2690355,35.177665 L17.2050761,35.0497462 C7.86700508,34.6659898 0.383756345,26.9908629 0.383756345,17.5888325 C0.383756345,7.93096447 8.18680203,0.127918782 17.8446701,0.127918782 Z M67.0294416,17.3969543 C67.093401,17.3969543 67.093401,17.4609137 67.1573604,17.4609137 C67.2053299,17.5088832 67.2532995,17.5208756 67.2742862,17.5508566 L67.2852792,17.5888325 L69.8436548,22.3857868 C69.9076142,22.4497462 69.9715736,22.5137056 70.0994924,22.5137056 C70.2018274,22.5137056 70.2632284,22.4727716 70.3164426,22.4236508 L70.3553299,22.3857868 L72.5299492,17.5888325 C72.5939086,17.5248731 72.5939086,17.4609137 72.657868,17.4609137 C72.657868,17.4097462 72.698802,17.3995127 72.7479228,17.397466 L76.0477157,17.3969543 C76.1116751,17.3969543 76.1756345,17.4609137 76.1756345,17.5248731 C76.226802,17.5760406 76.2370355,17.6681421 76.206335,17.7356832 L76.1756345,17.7807107 L72.0822335,26.7989848 L72.0822335,26.8629442 L70.0994924,31.2121827 L66.2619289,31.2121827 L68.1807107,26.9269036 L68.1807107,26.671066 L63.5116751,17.7807107 C63.4477157,17.7167513 63.4477157,17.5888325 63.5116751,17.5248731 C63.5596447,17.4769036 63.6435914,17.428934 63.7095495,17.4079473 L63.7675127,17.3969543 L67.0294416,17.3969543 Z M110.777665,17.2690355 C112.31269,17.2690355 113.591878,17.7167513 114.42335,18.6121827 C115.199391,19.4479188 115.47399,20.6179492 115.507154,21.810266 L115.51066,22.0659898 L115.51066,22.3218274 C115.51066,22.6060914 115.257981,22.6376763 115.20183,22.6411857 L108.730964,22.6416244 C108.730964,23.2812183 109.17868,23.9847716 109.498477,24.3045685 C109.818274,24.6243655 110.393909,24.880203 110.969543,24.880203 C111.417259,24.880203 112.056853,24.8162437 112.31269,24.6243655 C112.568528,24.4324873 112.696447,24.2406091 112.824365,23.9847716 C112.875533,23.9336041 112.926701,23.8824365 113.010615,23.8640162 L113.080203,23.8568528 L115.51066,23.8568528 C115.51066,23.8568528 115.702538,23.8568528 115.574619,23.9847716 C115.318782,24.9441624 114.743147,25.6477157 113.975635,26.1593909 C113.144162,26.7350254 112.056853,26.9908629 110.841624,26.9908629 C109.370558,26.9908629 108.15533,26.5431472 107.323858,25.7116751 C106.492386,24.880203 105.916751,23.6649746 105.916751,22.1939086 C105.916751,20.4670051 106.172589,19.635533 107.004061,18.7401015 C107.899492,17.9086294 109.306599,17.2690355 110.777665,17.2690355 Z M86.2172589,11.6406091 C86.2812183,11.6406091 86.4091371,11.7045685 86.4730964,11.7685279 C86.6010152,11.8964467 86.6010152,12.0243655 86.5370558,12.2162437 C86.3451777,12.8558376 85.9614213,13.6233503 85.6416244,14.1989848 C85.5883249,14.3055838 85.4461929,14.3233503 85.326269,14.3263113 L80.9725888,14.3269036 C80.9725888,14.3269036 80.9086294,14.3269036 80.8446701,14.3908629 C80.7935025,14.3908629 80.783269,14.431797 80.7812223,14.4809178 L80.7807107,14.5187817 L80.7807107,16.7573604 C80.7807107,16.7573604 80.7807107,16.8213198 80.8446701,16.8852792 C80.8446701,16.9364467 80.8856041,16.9466802 80.9347249,16.9487269 L80.9725888,16.9492386 L84.6699533,16.9497503 C84.753868,16.951797 84.8869036,16.9620305 84.9380711,17.013198 C84.9380711,17.013198 84.9850616,17.1071791 84.9179322,17.2548638 L84.8741117,17.3329949 L83.9786802,19.315736 C83.9238579,19.4253807 83.8690355,19.582016 83.7336579,19.6245312 L83.6588832,19.635533 L80.9086294,19.635533 C80.9086294,19.635533 80.8446701,19.635533 80.7807107,19.6994924 C80.7295431,19.6994924 80.7193096,19.7404264 80.7172629,19.7895472 L80.7167513,19.8274112 L80.7167513,26.9908629 L77.5187817,26.9908629 L77.5187563,11.8989188 L77.5217798,11.9329235 C77.5337722,11.9838912 77.5817418,11.9089388 77.6656885,11.8159978 L77.7106599,11.7685279 C77.7618274,11.7173604 77.8948629,11.6661929 78.0115249,11.6477726 L78.0944162,11.6406091 L86.2172589,11.6406091 Z M47.7137056,13.751269 C47.777665,13.751269 47.8416244,13.8152284 47.9055838,13.8152284 C47.9482234,13.857868 47.9624365,13.8720812 47.9861252,13.8957699 L48.0335025,13.9431472 L53.2781726,20.1472081 C53.342132,20.2111675 53.4700508,20.2751269 53.5979695,20.2751269 C53.7003046,20.2751269 53.8026396,20.2341929 53.8722274,20.1850721 L53.9177665,20.1472081 L59.1624365,13.9431472 C59.1624365,13.8791878 59.2263959,13.8152284 59.2903553,13.8152284 C59.3383249,13.7672589 59.3862944,13.7552665 59.434264,13.7522684 L59.4822335,13.751269 L61.5604475,13.7514555 C61.6320522,13.7525743 61.7573604,13.7604061 61.9766497,13.8152284 C62.0278173,13.8663959 62.0789848,13.9584975 62.0974051,14.0587858 L62.1045685,14.1350254 L62.1045685,26.9269036 L58.7786802,26.9269036 L58.7786802,20.0192893 L53.9817259,25.0720812 C53.9177665,25.1360406 53.7898477,25.2 53.6619289,25.2 C53.5595939,25.2 53.4572589,25.159066 53.3876711,25.1099452 L53.342132,25.0720812 L48.5451777,20.0192893 L48.5451777,26.9908629 L45.2192893,26.9908629 L45.2192893,14.1989848 C45.2192893,14.071066 45.2832487,13.9431472 45.3472081,13.8791878 C45.3983756,13.8280203 45.4904772,13.7768528 45.5907655,13.7584325 L45.6670051,13.751269 L47.7137056,13.751269 Z M89.5431472,17.013198 C91.0781726,17.013198 92.293401,17.4609137 93.2527919,18.3563452 C94.084264,19.2517766 94.5319797,20.3390863 94.5319797,21.9380711 C94.5319797,23.5370558 94.1482234,24.6883249 93.2527919,25.5837563 C92.3573604,26.4791878 91.142132,26.9269036 89.6071066,26.9269036 C88.0081218,26.9269036 86.8568528,26.4791878 85.9614213,25.5837563 C85.1299492,24.6883249 84.6822335,23.5370558 84.6822335,21.9380711 C84.6822335,20.3390863 85.0659898,19.2517766 85.9614213,18.3563452 C86.7928934,17.4609137 88.0081218,17.013198 89.5431472,17.013198 Z M98.3695431,17.0771574 L98.3695431,17.8446701 C99.2010152,17.5888325 100.224365,17.3969543 101.375635,17.3969543 L101.51509,17.3978338 C102.462133,17.4111453 104.949691,17.6159952 105.07996,20.5434266 L105.085279,20.786802 L105.085279,26.9269036 L102.079188,26.9269036 L102.078919,26.5218088 C102.077524,25.3808966 102.068872,22.2124775 102.015228,20.9786802 C101.951269,20.4030457 101.759391,19.635533 100.160406,19.635533 C98.8172589,19.635533 98.3482674,20.3931346 98.3084069,21.0182884 L98.3055838,21.106599 L98.3055838,26.8629442 L95.235533,26.8629442 L95.235533,17.5248731 C95.235533,17.3969543 95.2994924,17.2690355 95.4274112,17.2050761 C95.5233503,17.1571066 95.6192893,17.1091371 95.7152284,17.0881504 L95.8111675,17.0771574 L98.3695431,17.0771574 Z M42.4690355,15.7979695 C42.5969543,15.7979695 42.7248731,15.8619289 42.7888325,15.9258883 C42.84,15.9770558 42.8911675,16.0691574 42.9095878,16.1694457 L42.9167513,16.2456853 L42.9167513,26.9269036 L39.3989848,26.9269036 L39.3989848,16.2456853 C39.3989848,16.1177665 39.4629442,15.9898477 39.5269036,15.9258883 C39.5780711,15.8747208 39.6701726,15.8235533 39.7704609,15.805133 L39.8467005,15.7979695 L42.4690355,15.7979695 Z M7.48324873,17.3329949 C7.16345178,17.0771574 6.90761421,17.2690355 6.90761421,17.8446701 L6.90761421,17.8446701 L6.90761421,26.7989848 L11.0649746,26.7989848 C11.0649746,23.6649746 11.0649746,24.9441624 11.0010152,21.8101523 C11.0010152,20.9147208 10.6812183,20.2751269 10.1695431,19.8274112 L10.1695431,19.8274112 Z M28.5898477,13.4314721 C28.5898477,12.7918782 28.3340102,12.6639594 28.0142132,12.919797 L28.0142132,12.919797 L25.3279188,15.4142132 C24.880203,15.9258883 24.4964467,16.5015228 24.4964467,17.3969543 L24.4964467,17.3969543 L24.4964467,26.7989848 L28.5898477,26.7989848 Z M89.5431472,19.1878173 C88.9675127,19.1878173 88.519797,19.4436548 88.2,19.8913706 C87.880203,20.4030457 87.7522843,21.0426396 87.7522843,21.9380711 C87.7522843,22.8335025 87.880203,23.5370558 88.2,23.9847716 C88.519797,24.4324873 88.9675127,24.6883249 89.5431472,24.6883249 C90.1187817,24.6883249 90.5664975,24.4324873 90.8862944,23.9847716 C91.2060914,23.4730964 91.3979695,22.8335025 91.3340102,21.8741117 C91.3340102,21.0426396 91.2060914,20.3390863 90.8862944,19.8913706 C90.5664975,19.4436548 90.1187817,19.1878173 89.5431472,19.1878173 Z M26.4152284,7.03553299 C26.2873096,6.90761421 26.0314721,6.90761421 25.8395939,7.03553299 L25.8395939,7.03553299 L15.7340102,16.2456853 C15.3502538,16.6294416 15.1583756,16.6294416 14.7746193,16.3096447 L14.7746193,16.3096447 L9.72182741,11.5126904 C9.59390863,11.3208122 9.27411168,11.3208122 9.14619289,11.5126904 L9.14619289,11.5126904 L6.65177665,14.1989848 C6.45989848,14.3269036 6.45989848,14.6467005 6.65177665,14.7746193 L6.65177665,14.7746193 L14.5827411,21.9380711 C14.7746193,22.0659898 15.3502538,22.3857868 15.7979695,21.9380711 L15.7979695,21.9380711 L28.9096447,10.2335025 C29.0375635,10.1055838 29.0375635,9.84974619 28.9096447,9.65786802 L28.9096447,9.65786802 Z M110.969543,19.2517766 C110.457868,19.2517766 109.690355,19.4436548 109.370558,19.7634518 C109.086294,20.0477157 108.903102,20.3825155 108.820981,20.8576925 L108.794924,21.0426396 L112.888325,21.0426396 C112.888325,20.4670051 112.760406,20.0832487 112.440609,19.7634518 C112.120812,19.4436548 111.481218,19.2517766 110.969543,19.2517766 Z M119.348223,13.3035533 L121.650761,13.3035533 C122.993909,13.3035533 123.249746,14.1989848 123.249746,14.6467005 C123.249746,15.3630457 122.859736,15.8008122 122.23572,16.0120014 L122.098477,16.0538071 L123.185787,18.2923858 L122.162437,18.2923858 L121.139086,16.1817259 L120.243655,16.1817259 L120.243655,18.2923858 L119.348223,18.2923858 L119.348223,13.3035533 L121.650761,13.3035533 Z M121.394924,13.9431472 L120.243655,13.9431472 L120.243655,15.542132 L121.394924,15.542132 C122.034518,15.542132 122.354315,15.222335 122.354315,14.7746193 C122.354315,14.2629442 121.970558,13.9431472 121.394924,13.9431472 Z M41.1898477,11.0649746 C42.2495616,11.0649746 43.1086294,11.8954069 43.1086294,12.919797 C43.1086294,13.944187 42.2495616,14.7746193 41.1898477,14.7746193 C40.1301338,14.7746193 39.271066,13.944187 39.271066,12.919797 C39.271066,11.8954069 40.1301338,11.0649746 41.1898477,11.0649746 Z" id="形状结合"></path>
                <path d="M121,20.4 C123.430053,20.4 125.4,18.4300529 125.4,16 C125.4,13.5699471 123.430053,11.6 121,11.6 C118.569947,11.6 116.6,13.5699471 116.6,16 C116.6,18.4300529 118.569947,20.4 121,20.4 Z M121,19.6 C119.011775,19.6 117.4,17.9882251 117.4,16 C117.4,14.0117749 119.011775,12.4 121,12.4 C122.988225,12.4 124.6,14.0117749 124.6,16 C124.6,17.9882251 122.988225,19.6 121,19.6 Z" id="椭圆形" fill-rule="nonzero"></path>
            </g>
        </g>
    </g>
</svg>