<?xml version="1.0" encoding="UTF-8"?>
<svg viewBox="0 0 113 25" version="1.1" xmlns="http://www.w3.org/2000/svg" xmlns:xlink="http://www.w3.org/1999/xlink">
    <!-- Generator: Sketch 53 (72520) - https://sketchapp.com -->
    <title>menu_logo</title>
    <desc>Created with Sketch.</desc>
    <defs>
        <linearGradient x1="3.92%" y1="0%" x2="96.08%" y2="100%" id="linearGradient-1">
            <stop stop-color="#FF9E88" offset="0%"></stop>
            <stop stop-color="#FF572E" offset="100%"></stop>
        </linearGradient>
    </defs>
    <g id="menu_logo" stroke="none" stroke-width="1" fill="none" fill-rule="evenodd">
        <g fill-rule="nonzero">
            <path d="M3,12 C2.87970099,17.6326492 7.86390592,22.1153846 12,22 C16.1360941,22.1153846 21.120299,17.6326492 21,12 C21.120299,10.7790565 20.291339,10.0578082 19,10 L16,10 C12.5108819,10.0578082 10.3173812,8.0039768 10,5 C10.3229324,2.02944336 12.4561835,0 16,0 L23,0 L23,3 L16,3 C14.0138511,2.88461538 13.2011217,3.65779599 13,5 C13.1986047,6.36668507 14.0599584,7.17319281 16,7 L19,7 C21.7986457,7.17319281 24,9.08851202 24,12 C24,19.2992072 17.6614775,25 12,25 C6.33852254,25 1.53215758e-12,19.2992072 0,12 L0,0 L9,0 L9,3 L3,3 L3,12 Z M6,13 L9,13 C8.76897944,14.8284797 10.2714735,16.2307692 12,16 C13.7285265,16.2307692 15.2310206,14.8284797 15,13 L18,13 C18,16.4022896 15.2166631,19 12,19 C8.78333695,19 6,16.4022896 6,13 Z" id="Combined-Shape" fill="url(#linearGradient-1)"></path>
            <path d="M34.96,18 L34.96,8.832 L32.336,8.832 L32.336,6.8 L39.824,6.8 L39.824,8.832 L37.216,8.832 L37.216,18 L34.96,18 Z M40.592,13.84 C40.592,11.312 42.304,9.424 44.688,9.424 C47.28,9.424 48.752,11.152 48.752,13.888 C48.752,14.048 48.752,14.208 48.736,14.368 L42.848,14.368 C42.896,15.488 43.792,16.288 45.024,16.288 C46.16,16.288 46.816,15.616 47.056,15.264 L48.512,16.368 C48.192,16.96 47.072,18.208 44.992,18.208 C42.304,18.208 40.592,16.352 40.592,13.84 Z M42.912,12.928 L46.512,12.928 C46.464,11.904 45.728,11.232 44.72,11.232 C43.68,11.232 43.008,11.968 42.912,12.928 Z M54.384,9.424 C56.768,9.424 57.28,11.392 57.28,13.168 L57.28,18 L55.072,18 L55.072,12.912 C55.072,11.984 54.432,11.408 53.68,11.408 C52.768,11.408 52.192,12.08 52.192,12.976 L52.192,18 L49.984,18 L49.984,9.632 L52.144,9.632 L52.144,10.608 C52.496,10.032 53.296,9.424 54.384,9.424 Z M58.48,13.84 C58.48,11.296 60.432,9.424 62.976,9.424 C65.536,9.424 67.488,11.312 67.488,13.84 C67.488,16.368 65.6,18.208 62.976,18.208 C60.368,18.208 58.48,16.368 58.48,13.84 Z M60.688,13.84 C60.688,15.264 61.664,16.256 62.976,16.256 C64.304,16.256 65.28,15.264 65.28,13.84 C65.28,12.416 64.304,11.376 62.976,11.376 C61.648,11.376 60.688,12.4 60.688,13.84 Z M73.216,9.424 L73.216,11.664 C71.568,11.664 70.96,12.688 70.96,14.352 L70.96,18 L68.752,18 L68.752,9.632 L70.912,9.632 L70.912,10.848 C71.28,10.016 72.112,9.424 73.216,9.424 Z M77.072,18.208 C75.424,18.208 74.4,17.376 73.952,16.656 L75.248,15.504 C75.664,15.984 76.224,16.416 77.168,16.416 C77.792,16.416 78.192,16.144 78.192,15.664 C78.192,14.384 74.24,14.88 74.24,11.904 C74.24,10.352 75.568,9.424 77.28,9.424 C78.864,9.424 79.744,10.256 80.144,10.912 L78.688,12 C78.432,11.68 77.968,11.2 77.184,11.2 C76.672,11.2 76.32,11.456 76.32,11.872 C76.32,13.2 80.288,12.56 80.288,15.552 C80.288,17.184 78.88,18.208 77.072,18.208 Z M85.888,9.424 C88.288,9.424 88.784,11.392 88.784,13.168 L88.784,18 L86.592,18 L86.592,12.912 C86.592,11.984 85.952,11.408 85.2,11.408 C84.272,11.408 83.68,12.08 83.68,12.976 L83.68,18 L81.472,18 L81.472,6.432 L83.68,6.432 L83.68,10.608 C84.032,10.032 84.8,9.424 85.888,9.424 Z M89.984,15.408 C89.984,13.76 91.28,12.64 93.232,12.64 C94.08,12.64 94.736,12.896 95.04,13.104 L95.04,12.56 C95.04,11.824 94.496,11.328 93.52,11.328 C92.688,11.328 91.92,11.6 91.296,11.92 L90.464,10.416 C91.216,9.904 92.48,9.424 93.76,9.424 C96.448,9.424 97.248,10.832 97.248,12.704 L97.248,18 L95.296,18 L95.152,17.456 C94.72,17.92 94.08,18.208 93.12,18.208 C91.424,18.208 89.984,17.168 89.984,15.408 Z M92.192,15.344 C92.192,16.032 92.816,16.496 93.648,16.496 C94.48,16.496 95.088,16.048 95.088,15.344 C95.088,14.608 94.48,14.176 93.632,14.176 C92.784,14.176 92.192,14.656 92.192,15.344 Z M103.344,9.424 L103.344,11.664 C101.696,11.664 101.088,12.688 101.088,14.352 L101.088,18 L98.88,18 L98.88,9.632 L101.04,9.632 L101.04,10.848 C101.408,10.016 102.24,9.424 103.344,9.424 Z M104.192,13.84 C104.192,11.312 105.904,9.424 108.288,9.424 C110.88,9.424 112.352,11.152 112.352,13.888 C112.352,14.048 112.352,14.208 112.336,14.368 L106.448,14.368 C106.496,15.488 107.392,16.288 108.624,16.288 C109.76,16.288 110.416,15.616 110.656,15.264 L112.112,16.368 C111.792,16.96 110.672,18.208 108.592,18.208 C105.904,18.208 104.192,16.352 104.192,13.84 Z M106.512,12.928 L110.112,12.928 C110.064,11.904 109.328,11.232 108.32,11.232 C107.28,11.232 106.608,11.968 106.512,12.928 Z" id="Tenorshare" fill="white"></path>
        </g>
    </g>
</svg>